<svg width="132" height="44" viewBox="0 0 136 44" fill="none" xmlns="http://www.w3.org/2000/svg">
<path d="M32.0967 31.2885C32.3592 31.4841 32.6672 31.5778 32.9726 31.5778C33.4225 31.5778 33.8699 31.3716 34.1591 30.9805C36.0287 28.4522 37.0519 25.4497 37.1109 22.2973C37.1966 17.8352 35.2439 13.5551 31.7485 10.5554C31.1324 10.0251 30.2003 10.0947 29.6699 10.7134C29.1396 11.3294 29.2092 12.2615 29.828 12.7918C32.6511 15.2184 34.2315 18.6628 34.1645 22.2437C34.1163 24.7801 33.294 27.196 31.7887 29.2315C31.3038 29.8851 31.4431 30.8091 32.0967 31.2912V31.2885ZM21.9987 37.1113C22.3603 37.1113 22.7192 37.0979 23.0754 37.0738C26.1477 36.8568 28.553 34.2802 28.553 31.2055V22.916C28.553 18.8449 25.2397 15.5318 21.1683 15.5318H15.4979V21.0117C15.4979 25.0828 18.8112 28.3959 22.8826 28.3959H25.6066V31.2082C25.6066 32.7429 24.404 34.0312 22.8692 34.1383C22.3817 34.1731 21.8835 34.1785 21.388 34.1544C15.5729 33.8705 10.2962 28.7334 9.86766 22.9321C9.61053 19.4716 10.7703 16.1826 13.1328 13.6703C15.4631 11.1928 18.7469 9.79206 22.1513 9.83491C22.6228 9.84027 23.0995 9.87509 23.5683 9.93937C24.3745 10.0465 25.1165 9.48403 25.2263 8.67785C25.3361 7.87166 24.7709 7.12977 23.9647 7.01996C23.3781 6.93961 22.7781 6.89676 22.1888 6.88872C17.9648 6.83783 13.8828 8.57342 10.99 11.6508C8.05699 14.7711 6.61594 18.8556 6.932 23.1463C7.46503 30.3565 14.022 36.7417 21.2487 37.0925C21.5005 37.1059 21.7496 37.1113 22.0013 37.1113H21.9987ZM22.8826 25.447C20.4344 25.447 18.4443 23.457 18.4443 21.009V18.4753H21.1683C23.6165 18.4753 25.6066 20.4653 25.6066 22.9133V25.4444H22.8826V25.447ZM2.50174 15.3979C2.68924 15.4755 2.88209 15.513 3.07227 15.513C3.64815 15.513 4.19457 15.1755 4.43028 14.6104C7.41414 7.52348 14.3113 2.94351 22.0013 2.94351C28.2691 2.94351 34.1377 6.02896 37.7001 11.1955C38.1608 11.8651 39.0796 12.0338 39.7492 11.5732C40.4188 11.1125 40.5876 10.1938 40.1269 9.52422C36.0154 3.55952 29.2387 0 22.0013 0C13.1247 0 5.16151 5.28705 1.71694 13.4694C1.40087 14.2194 1.75444 15.0818 2.50442 15.3979H2.50174ZM10.473 37.1729C5.68918 33.533 2.94637 28.0022 2.94637 22C2.94637 21.1858 2.28745 20.5269 1.47318 20.5269C0.658915 20.5269 0 21.1858 0 22C0 28.9316 3.16869 35.3168 8.68911 39.5164C8.95696 39.72 9.27035 39.8164 9.58106 39.8164C10.0257 39.8164 10.465 39.6156 10.7543 39.2352C11.2471 38.5871 11.1212 37.663 10.473 37.1702V37.1729ZM43.4188 16.954C43.2339 16.1612 42.4384 15.671 41.6483 15.8559C40.8554 16.0407 40.3653 16.8334 40.5501 17.6262C40.8849 19.0511 41.0536 20.5215 41.0536 22C41.0536 32.5072 32.5065 41.0538 21.9987 41.0538C20.0701 41.0538 18.1684 40.7672 16.3443 40.2021C15.5675 39.9611 14.7426 40.395 14.5015 41.1717C14.2604 41.9484 14.6943 42.7733 15.4711 43.0144C17.5791 43.6679 19.7728 44 21.9987 44C34.1297 44 44 34.1303 44 22C44 20.2965 43.8045 18.5985 43.4188 16.954Z" fill="#18171A"/>
<path d="M135.107 5.65826L134.079 7.14458L133.052 5.65826H132.464V8.79996H133.079V6.73143L134.079 8.11849L135.08 6.73143V8.79996H135.694V5.65826H135.107ZM129.376 6.2163H130.431V8.80265H131.045V6.2163H132.099V5.66095H129.373V6.2163H129.376ZM58.233 5.81923H54.933V14.7936H52.1884V17.8629H54.933V31.6022C54.933 36.3697 57.0203 38.787 61.1413 38.787C61.753 38.787 62.2949 38.7522 62.751 38.6797V35.6829C62.3862 35.7071 61.9971 35.7178 61.5598 35.7178C59.1988 35.7178 58.2357 34.5265 58.2357 31.6022V17.8629H63.0542V14.7936H58.2357V5.81923H58.233ZM87.3937 32.9034V14.7936H84.0937V18.4397L83.7959 17.9675C81.6764 14.6005 77.813 14.0961 75.7015 14.0961C72.4203 14.0961 69.6059 15.2926 67.3361 17.6536C65.0664 20.0173 63.9154 22.9739 63.9154 26.4402C63.9154 29.9065 65.0664 32.9088 67.3361 35.2724C69.5764 37.6039 72.3908 38.7844 75.7015 38.7844C79.4549 38.7844 82.2505 37.4724 84.0132 34.8861L84.2547 34.5346L84.3083 34.9585C84.4774 36.3161 84.9925 37.3436 85.8323 38.0063C86.4359 38.4248 87.273 38.6448 88.2576 38.6448C89.0732 38.6448 89.803 38.5241 90.3744 38.2961V35.8171C89.9854 35.86 89.5883 35.9029 89.2342 35.9029C87.9303 35.9029 87.3964 35.0336 87.3964 32.9034H87.3937ZM81.9823 33.0912C80.335 34.8324 78.2208 35.7178 75.7015 35.7178C73.1823 35.7178 71.2774 34.8592 69.6059 33.0912C67.9989 31.2936 67.2154 29.1205 67.2154 26.4429C67.2154 23.7653 68.0203 21.5653 69.6059 19.8402C71.2613 18.0427 73.2574 17.168 75.7015 17.168C78.1457 17.168 80.3511 18.0668 81.9823 19.8402C83.6618 21.5653 84.5123 23.7868 84.5123 26.4456C84.5123 29.1044 83.6859 31.299 81.9823 33.0966V33.0912ZM103.287 32.0207V5.81923H99.9874V32.2514C99.9874 35.0041 100.72 36.9653 102.045 37.7702C103.322 38.5187 104.31 38.7844 105.823 38.7844C106.231 38.7844 106.609 38.7602 106.944 38.7092V35.7044C106.732 35.7124 106.51 35.7151 106.287 35.7151C104.1 35.7151 103.287 34.7144 103.287 32.018V32.0207ZM95.2601 32.0207V5.81923H91.9601V32.2514C91.9601 35.0041 92.6925 36.9653 94.0179 37.7702C95.295 38.5187 96.2823 38.7844 97.7954 38.7844C98.2032 38.7844 98.5815 38.7602 98.9169 38.7092V35.7044C98.705 35.7124 98.4823 35.7151 98.2596 35.7151C96.073 35.7151 95.2601 34.7144 95.2601 32.018V32.0207ZM119.476 14.0961C116.055 14.0961 113.099 15.2926 110.69 17.6563C108.296 20.0039 107.084 22.9578 107.084 26.4402C107.084 29.9226 108.296 32.9249 110.69 35.2724C113.102 37.6361 115.975 38.787 119.476 38.787C122.977 38.787 125.851 37.6388 128.263 35.2724C130.656 32.9249 131.869 29.9548 131.869 26.4402C131.869 22.9256 130.656 20.0012 128.263 17.6563C125.853 15.2926 122.9 14.0961 119.476 14.0961ZM125.988 33.0939C124.246 34.8351 122.054 35.7178 119.476 35.7178C116.898 35.7178 114.706 34.8351 112.962 33.0939C111.229 31.3124 110.384 29.1366 110.384 26.4429C110.384 23.7492 111.25 21.5466 112.962 19.8375C114.711 18.04 116.842 17.1653 119.476 17.1653C122.111 17.1653 124.238 18.04 125.988 19.8348C127.699 21.5465 128.566 23.768 128.566 26.4402C128.566 29.1124 127.723 31.3097 125.988 33.0912V33.0939Z" fill="#18171A"/>
</svg>
